<mxfile host="65bd71144e">
    <diagram id="9lBO-39v1qA_PlNTV9JS" name="Page-1">
        <mxGraphModel dx="1717" dy="1647" grid="1" gridSize="10" guides="1" tooltips="1" connect="1" arrows="1" fold="1" page="1" pageScale="1" pageWidth="827" pageHeight="1169" math="0" shadow="0">
            <root>
                <mxCell id="0"/>
                <mxCell id="1" parent="0"/>
                <mxCell id="2" value="" style="edgeStyle=none;html=1;fontSize=13;rounded=0;" edge="1" parent="1" source="3" target="5">
                    <mxGeometry relative="1" as="geometry"/>
                </mxCell>
                <mxCell id="3" value="start" style="ellipse;whiteSpace=wrap;html=1;rounded=0;" vertex="1" parent="1">
                    <mxGeometry x="289" y="-69" width="120" height="50" as="geometry"/>
                </mxCell>
                <mxCell id="4" value="" style="edgeStyle=none;html=1;fontColor=#FFFFFF;fontSize=13;rounded=0;" edge="1" parent="1" source="5" target="7">
                    <mxGeometry relative="1" as="geometry"/>
                </mxCell>
                <mxCell id="5" value="&lt;div style=&quot;background-color: rgb(40, 44, 52); font-family: consolas, &amp;quot;courier new&amp;quot;, monospace; font-size: 13px; line-height: 19px;&quot;&gt;&lt;font color=&quot;#ffffff&quot; style=&quot;font-size: 13px;&quot;&gt;value&lt;/font&gt;&lt;br style=&quot;font-size: 13px;&quot;&gt;&lt;/div&gt;" style="shape=parallelogram;perimeter=parallelogramPerimeter;whiteSpace=wrap;html=1;fixedSize=1;fontSize=13;rounded=0;" vertex="1" parent="1">
                    <mxGeometry x="288" y="10" width="124" height="40" as="geometry"/>
                </mxCell>
                <mxCell id="6" value="" style="edgeStyle=none;html=1;fontColor=#FFFFFF;fontSize=13;rounded=0;" edge="1" parent="1" source="7" target="9">
                    <mxGeometry relative="1" as="geometry"/>
                </mxCell>
                <mxCell id="7" value="array = &lt;span style=&quot;background-color: rgb(40 , 44 , 52) ; font-family: &amp;#34;consolas&amp;#34; , &amp;#34;courier new&amp;#34; , monospace ; font-size: 14px&quot;&gt;count&amp;nbsp;&lt;/span&gt;&lt;span&gt;value&lt;/span&gt;" style="whiteSpace=wrap;html=1;fontSize=13;rounded=0;" vertex="1" parent="1">
                    <mxGeometry x="282" y="80" width="132" height="50" as="geometry"/>
                </mxCell>
                <mxCell id="8" style="edgeStyle=none;html=1;fontSize=13;fontColor=#FFFFFF;rounded=0;entryX=0.5;entryY=0;entryDx=0;entryDy=0;" edge="1" parent="1" source="9" target="43">
                    <mxGeometry relative="1" as="geometry">
                        <mxPoint x="346" y="226" as="targetPoint"/>
                    </mxGeometry>
                </mxCell>
                <mxCell id="9" value="size =&amp;nbsp;array.Length &lt;br&gt;index = 0" style="shape=parallelogram;perimeter=parallelogramPerimeter;fixedSize=1;fontSize=13;whiteSpace=wrap;verticalAlign=middle;html=1;rounded=0;size=-2;" vertex="1" parent="1">
                    <mxGeometry x="217" y="160" width="266" height="47" as="geometry"/>
                </mxCell>
                <mxCell id="10" value="No" style="edgeStyle=none;html=1;fontColor=#FFFFFF;fontSize=13;rounded=0;" edge="1" parent="1" source="13">
                    <mxGeometry relative="1" as="geometry">
                        <mxPoint x="186" y="556.97" as="targetPoint"/>
                    </mxGeometry>
                </mxCell>
                <mxCell id="11" value="Yes" style="edgeStyle=none;html=1;fontColor=#FFFFFF;fontSize=13;rounded=0;" edge="1" parent="1" source="13" target="15">
                    <mxGeometry relative="1" as="geometry"/>
                </mxCell>
                <mxCell id="12" style="edgeStyle=none;html=1;fontSize=13;fontColor=#FFFFFF;rounded=0;" edge="1" parent="1" source="13" target="15">
                    <mxGeometry relative="1" as="geometry"/>
                </mxCell>
                <mxCell id="13" value="&lt;span style=&quot;color: rgb(255 , 255 , 255) ; font-family: &amp;#34;consolas&amp;#34; , &amp;#34;courier new&amp;#34; , monospace ; background-color: rgb(40 , 44 , 52)&quot;&gt;index&amp;nbsp;&lt;/span&gt;&lt;span style=&quot;color: rgb(255 , 255 , 255) ; background-color: rgb(40 , 44 , 52) ; font-family: &amp;#34;consolas&amp;#34; , &amp;#34;courier new&amp;#34; , monospace&quot;&gt;&amp;lt; size&lt;/span&gt;&lt;span style=&quot;color: rgb(255 , 255 , 255) ; font-family: &amp;#34;consolas&amp;#34; , &amp;#34;courier new&amp;#34; , monospace ; background-color: rgb(40 , 44 , 52)&quot;&gt;&lt;br&gt;&lt;/span&gt;" style="rhombus;whiteSpace=wrap;html=1;fontSize=13;rounded=0;" vertex="1" parent="1">
                    <mxGeometry x="252" y="526.97" width="204" height="60" as="geometry"/>
                </mxCell>
                <mxCell id="14" value="" style="edgeStyle=none;html=1;fontColor=#FFFFFF;fontSize=13;rounded=0;" edge="1" parent="1" source="15" target="19">
                    <mxGeometry relative="1" as="geometry"/>
                </mxCell>
                <mxCell id="15" value="&lt;div style=&quot;background-color: rgb(40, 44, 52); font-family: consolas, &amp;quot;courier new&amp;quot;, monospace; font-size: 13px; line-height: 19px;&quot;&gt;&lt;font color=&quot;#ffffff&quot; style=&quot;font-size: 13px;&quot;&gt;elements[i] % 2 == 0&lt;/font&gt;&lt;/div&gt;" style="whiteSpace=wrap;html=1;fontSize=13;rounded=0;" vertex="1" parent="1">
                    <mxGeometry x="530" y="526.97" width="190" height="50" as="geometry"/>
                </mxCell>
                <mxCell id="16" value="" style="edgeStyle=none;html=1;fontSize=13;fontColor=#F0F0F0;rounded=0;" edge="1" parent="1" source="17" target="23">
                    <mxGeometry relative="1" as="geometry"/>
                </mxCell>
                <mxCell id="17" value="&lt;div style=&quot;background-color: rgb(40 , 44 , 52) ; font-family: &amp;#34;consolas&amp;#34; , &amp;#34;courier new&amp;#34; , monospace ; font-size: 14px ; line-height: 19px&quot;&gt;collectionElements&lt;br&gt;&lt;div style=&quot;font-family: &amp;#34;consolas&amp;#34; , &amp;#34;courier new&amp;#34; , monospace ; line-height: 19px&quot;&gt;evenCounts&lt;/div&gt;&lt;/div&gt;" style="whiteSpace=wrap;html=1;fontSize=13;strokeColor=#F0F0F0;rounded=0;" vertex="1" parent="1">
                    <mxGeometry x="16" y="531.97" width="170" height="50" as="geometry"/>
                </mxCell>
                <mxCell id="18" value="" style="edgeStyle=none;html=1;fontSize=13;fontColor=#FFFFFF;rounded=0;" edge="1" parent="1" source="19" target="21">
                    <mxGeometry relative="1" as="geometry"/>
                </mxCell>
                <mxCell id="19" value="&lt;span style=&quot;color: rgb(255 , 255 , 255) ; font-family: &amp;#34;consolas&amp;#34; , &amp;#34;courier new&amp;#34; , monospace ; background-color: rgb(40 , 44 , 52)&quot;&gt;evenNumber =&amp;nbsp;&lt;/span&gt;&lt;span style=&quot;color: rgb(255 , 255 , 255) ; font-family: &amp;#34;consolas&amp;#34; , &amp;#34;courier new&amp;#34; , monospace ; background-color: rgb(40 , 44 , 52)&quot;&gt;elements[i]&lt;/span&gt;" style="whiteSpace=wrap;html=1;fontSize=13;rounded=0;" vertex="1" parent="1">
                    <mxGeometry x="530" y="611.97" width="190" height="45" as="geometry"/>
                </mxCell>
                <mxCell id="20" style="edgeStyle=none;html=1;fontSize=13;fontColor=#FFFFFF;rounded=0;" edge="1" parent="1" source="21" target="13">
                    <mxGeometry relative="1" as="geometry"/>
                </mxCell>
                <mxCell id="21" value="&lt;span style=&quot;color: rgb(255 , 255 , 255) ; font-family: &amp;#34;consolas&amp;#34; , &amp;#34;courier new&amp;#34; , monospace ; background-color: rgb(40 , 44 , 52)&quot;&gt;index&amp;nbsp;&lt;/span&gt;=&amp;nbsp;&lt;span style=&quot;color: rgb(255 , 255 , 255) ; font-family: &amp;#34;consolas&amp;#34; , &amp;#34;courier new&amp;#34; , monospace ; background-color: rgb(40 , 44 , 52)&quot;&gt;index&lt;/span&gt;&amp;nbsp;+ 1" style="whiteSpace=wrap;html=1;fontSize=13;rounded=0;" vertex="1" parent="1">
                    <mxGeometry x="286" y="614.47" width="136" height="42.5" as="geometry"/>
                </mxCell>
                <mxCell id="22" value="" style="edgeStyle=none;html=1;fontSize=13;fontColor=#F0F0F0;exitX=0.5;exitY=1;exitDx=0;exitDy=0;rounded=0;" edge="1" parent="1" source="23" target="26">
                    <mxGeometry relative="1" as="geometry">
                        <mxPoint x="101" y="681.97" as="sourcePoint"/>
                    </mxGeometry>
                </mxCell>
                <mxCell id="23" value="&lt;div style=&quot;background-color: rgb(40 , 44 , 52) ; font-family: &amp;#34;consolas&amp;#34; , &amp;#34;courier new&amp;#34; , monospace ; font-size: 14px ; line-height: 19px&quot;&gt;&lt;span&gt;length&lt;/span&gt; = &lt;span&gt;collectionElements&lt;/span&gt;.&lt;span&gt;Length&lt;br&gt;&lt;/span&gt;&lt;div style=&quot;font-family: &amp;#34;consolas&amp;#34; , &amp;#34;courier new&amp;#34; , monospace ; line-height: 19px&quot;&gt;&lt;span&gt;position&lt;/span&gt; = &lt;span&gt;0&lt;br&gt;index (E&lt;/span&gt;venCounts) = 0&lt;/div&gt;&lt;/div&gt;" style="whiteSpace=wrap;html=1;fontSize=13;fontColor=#F0F0F0;rounded=0;" vertex="1" parent="1">
                    <mxGeometry x="-54" y="604.47" width="310" height="62.5" as="geometry"/>
                </mxCell>
                <mxCell id="24" value="Yes" style="edgeStyle=none;html=1;fontSize=13;fontColor=#F0F0F0;rounded=0;" edge="1" parent="1" source="26" target="29">
                    <mxGeometry relative="1" as="geometry"/>
                </mxCell>
                <mxCell id="25" value="No" style="edgeStyle=none;html=1;fontSize=13;fontColor=#F0F0F0;rounded=0;" edge="1" parent="1" source="26" target="31">
                    <mxGeometry relative="1" as="geometry"/>
                </mxCell>
                <mxCell id="26" value="&lt;div style=&quot;background-color: rgb(40, 44, 52); font-family: consolas, &amp;quot;courier new&amp;quot;, monospace; font-size: 14px; line-height: 19px;&quot;&gt;&lt;span style=&quot;&quot;&gt;position&lt;/span&gt; &amp;lt; &lt;span style=&quot;&quot;&gt;length&lt;/span&gt;&lt;/div&gt;" style="rhombus;whiteSpace=wrap;html=1;fontSize=13;fontColor=#F0F0F0;rounded=0;" vertex="1" parent="1">
                    <mxGeometry x="-4" y="696.97" width="210" height="65" as="geometry"/>
                </mxCell>
                <mxCell id="27" value="Yes" style="edgeStyle=none;html=1;fontSize=13;fontColor=#F0F0F0;rounded=0;" edge="1" parent="1" source="29" target="33">
                    <mxGeometry relative="1" as="geometry"/>
                </mxCell>
                <mxCell id="28" value="No" style="edgeStyle=none;html=1;" edge="1" parent="1" source="29" target="35">
                    <mxGeometry x="-0.8983" relative="1" as="geometry">
                        <Array as="points">
                            <mxPoint x="295" y="842"/>
                            <mxPoint x="295" y="1093"/>
                        </Array>
                        <mxPoint as="offset"/>
                    </mxGeometry>
                </mxCell>
                <mxCell id="29" value="&lt;div style=&quot;background-color: rgb(40 , 44 , 52) ; font-family: &amp;#34;consolas&amp;#34; , &amp;#34;courier new&amp;#34; , monospace ; font-size: 14px ; line-height: 19px&quot;&gt;&lt;span&gt;collectionElements&lt;br&gt;&lt;/span&gt;[&lt;span&gt;position&lt;/span&gt;] % &lt;span&gt;2&lt;/span&gt; == &lt;span&gt;0&lt;/span&gt;&lt;/div&gt;" style="rhombus;whiteSpace=wrap;html=1;fontSize=13;fontColor=#F0F0F0;rounded=0;" vertex="1" parent="1">
                    <mxGeometry x="-44" y="801.97" width="290" height="80" as="geometry"/>
                </mxCell>
                <mxCell id="30" value="" style="edgeStyle=none;html=1;" edge="1" parent="1" source="31" target="53">
                    <mxGeometry relative="1" as="geometry"/>
                </mxCell>
                <mxCell id="31" value="&lt;div style=&quot;background-color: rgb(40, 44, 52); font-family: consolas, &amp;quot;courier new&amp;quot;, monospace; font-size: 14px; line-height: 19px;&quot;&gt;&lt;span style=&quot;&quot;&gt;evenCounts&lt;/span&gt;&lt;/div&gt;" style="whiteSpace=wrap;html=1;fontSize=13;fontColor=#F0F0F0;rounded=0;" vertex="1" parent="1">
                    <mxGeometry x="300" y="701.97" width="120" height="60" as="geometry"/>
                </mxCell>
                <mxCell id="32" value="" style="edgeStyle=none;html=1;fontSize=13;fontColor=#F0F0F0;rounded=0;" edge="1" parent="1" source="33" target="37">
                    <mxGeometry relative="1" as="geometry"/>
                </mxCell>
                <mxCell id="33" value="&lt;div style=&quot;background-color: rgb(40 , 44 , 52) ; font-family: &amp;#34;consolas&amp;#34; , &amp;#34;courier new&amp;#34; , monospace ; font-size: 14px ; line-height: 19px&quot;&gt;&lt;span&gt;index =&amp;nbsp;&lt;/span&gt;&lt;/div&gt;&lt;span style=&quot;font-family: &amp;#34;consolas&amp;#34; , &amp;#34;courier new&amp;#34; , monospace ; font-size: 14px&quot;&gt;collectionElements&lt;/span&gt;&lt;span style=&quot;font-family: &amp;#34;consolas&amp;#34; , &amp;#34;courier new&amp;#34; , monospace ; font-size: 14px ; background-color: rgb(40 , 44 , 52)&quot;&gt;[&lt;/span&gt;&lt;span style=&quot;font-family: &amp;#34;consolas&amp;#34; , &amp;#34;courier new&amp;#34; , monospace ; font-size: 14px&quot;&gt;position&lt;/span&gt;&lt;span style=&quot;font-family: &amp;#34;consolas&amp;#34; , &amp;#34;courier new&amp;#34; , monospace ; font-size: 14px ; background-color: rgb(40 , 44 , 52)&quot;&gt;]&lt;/span&gt;" style="whiteSpace=wrap;html=1;fontSize=13;fontColor=#F0F0F0;rounded=0;" vertex="1" parent="1">
                    <mxGeometry x="-24" y="911.97" width="250" height="60" as="geometry"/>
                </mxCell>
                <mxCell id="34" style="edgeStyle=none;html=1;fontSize=13;fontColor=#F0F0F0;rounded=0;" edge="1" parent="1" source="35" target="26">
                    <mxGeometry relative="1" as="geometry">
                        <Array as="points">
                            <mxPoint x="-134" y="1093"/>
                            <mxPoint x="-134" y="936.97"/>
                            <mxPoint x="-134" y="729.97"/>
                        </Array>
                    </mxGeometry>
                </mxCell>
                <mxCell id="35" value="&lt;div style=&quot;background-color: rgb(40, 44, 52); font-family: consolas, &amp;quot;courier new&amp;quot;, monospace; font-size: 14px; line-height: 19px;&quot;&gt;&lt;span style=&quot;&quot;&gt;position =&amp;nbsp;&lt;/span&gt;&lt;span style=&quot;&quot;&gt;position + 1&lt;/span&gt;&lt;/div&gt;" style="whiteSpace=wrap;html=1;fontSize=13;fontColor=#F0F0F0;rounded=0;" vertex="1" parent="1">
                    <mxGeometry x="41" y="1069" width="120" height="47" as="geometry"/>
                </mxCell>
                <mxCell id="36" style="edgeStyle=none;html=1;" edge="1" parent="1" source="37" target="35">
                    <mxGeometry relative="1" as="geometry"/>
                </mxCell>
                <mxCell id="37" value="index = index&amp;nbsp; +1&amp;nbsp;" style="whiteSpace=wrap;html=1;fontSize=13;fontColor=#F0F0F0;rounded=0;" vertex="1" parent="1">
                    <mxGeometry x="41" y="1001" width="120" height="39.03" as="geometry"/>
                </mxCell>
                <mxCell id="38" value="" style="edgeStyle=none;html=1;fontSize=13;fontColor=#F0F0F0;rounded=0;" edge="1" parent="1" target="40">
                    <mxGeometry relative="1" as="geometry">
                        <mxPoint x="650" y="1053" as="sourcePoint"/>
                    </mxGeometry>
                </mxCell>
                <mxCell id="39" value="newArray(&lt;span style=&quot;font-family: &amp;#34;consolas&amp;#34; , &amp;#34;courier new&amp;#34; , monospace ; font-size: 14px ; background-color: rgb(40 , 44 , 52)&quot;&gt;evenCounts)&lt;/span&gt;" style="shape=document;whiteSpace=wrap;html=1;boundedLbl=1;labelBackgroundColor=none;fontSize=13;fontColor=#F0F0F0;rounded=0;" vertex="1" parent="1">
                    <mxGeometry x="526.5" y="1013" width="172" height="65" as="geometry"/>
                </mxCell>
                <mxCell id="40" value="end" style="ellipse;whiteSpace=wrap;html=1;fontSize=13;fontColor=#F0F0F0;labelBackgroundColor=none;rounded=0;" vertex="1" parent="1">
                    <mxGeometry x="590" y="1093" width="120" height="60" as="geometry"/>
                </mxCell>
                <mxCell id="41" value="No" style="edgeStyle=none;html=1;fontColor=#F0F0F0;rounded=0;" edge="1" parent="1" source="43" target="47">
                    <mxGeometry relative="1" as="geometry"/>
                </mxCell>
                <mxCell id="42" value="Yes" style="edgeStyle=none;html=1;" edge="1" parent="1" source="43" target="49">
                    <mxGeometry relative="1" as="geometry"/>
                </mxCell>
                <mxCell id="43" value="index&amp;nbsp; &amp;lt;&amp;nbsp;&lt;span style=&quot;font-family: &amp;#34;consolas&amp;#34; , &amp;#34;courier new&amp;#34; , monospace ; font-size: 14px&quot;&gt;size&amp;nbsp;&lt;/span&gt;" style="rhombus;whiteSpace=wrap;html=1;fontSize=13;fontColor=#FFFFFF;rounded=0;labelBackgroundColor=none;" vertex="1" parent="1">
                    <mxGeometry x="280" y="232" width="140" height="80" as="geometry"/>
                </mxCell>
                <mxCell id="44" style="edgeStyle=none;html=1;fontColor=#F0F0F0;rounded=0;" edge="1" parent="1" source="45" target="13">
                    <mxGeometry relative="1" as="geometry"/>
                </mxCell>
                <mxCell id="45" value="&lt;span style=&quot;color: rgb(255 , 255 , 255) ; font-family: &amp;#34;consolas&amp;#34; , &amp;#34;courier new&amp;#34; , monospace ; font-size: 13px&quot;&gt;size =&amp;nbsp;&lt;/span&gt;&lt;span style=&quot;color: rgb(255 , 255 , 255) ; font-family: &amp;#34;consolas&amp;#34; , &amp;#34;courier new&amp;#34; , monospace ; font-size: 14px&quot;&gt;elementsLength&lt;/span&gt;&lt;span style=&quot;color: rgb(255 , 255 , 255) ; font-family: &amp;#34;consolas&amp;#34; , &amp;#34;courier new&amp;#34; , monospace ; font-size: 13px&quot;&gt;&lt;br&gt;evenNumber = 0&lt;br&gt;index = 0&lt;br&gt;&lt;/span&gt;" style="rounded=0;whiteSpace=wrap;html=1;fontColor=#F0F0F0;" vertex="1" parent="1">
                    <mxGeometry x="259" y="450" width="190" height="50" as="geometry"/>
                </mxCell>
                <mxCell id="46" value="" style="edgeStyle=none;html=1;" edge="1" parent="1" source="47" target="51">
                    <mxGeometry relative="1" as="geometry"/>
                </mxCell>
                <mxCell id="47" value="&lt;span&gt;index&amp;nbsp; =&amp;nbsp;&lt;/span&gt;index&amp;nbsp;&amp;nbsp;+1" style="whiteSpace=wrap;html=1;fontSize=13;fontColor=#FFFFFF;rounded=0;labelBackgroundColor=none;" vertex="1" parent="1">
                    <mxGeometry x="292" y="340" width="120" height="30" as="geometry"/>
                </mxCell>
                <mxCell id="48" style="edgeStyle=none;html=1;entryX=1;entryY=0.5;entryDx=0;entryDy=0;" edge="1" parent="1" source="49" target="47">
                    <mxGeometry relative="1" as="geometry">
                        <Array as="points">
                            <mxPoint x="534" y="355"/>
                        </Array>
                    </mxGeometry>
                </mxCell>
                <mxCell id="49" value="array =&amp;nbsp;&lt;span style=&quot;color: rgb(240 , 240 , 240) ; font-family: &amp;#34;consolas&amp;#34; , &amp;#34;courier new&amp;#34; , monospace ; font-size: 14px ; background-color: rgb(40 , 44 , 52)&quot;&gt;count&amp;nbsp;&lt;/span&gt;&lt;br&gt;&lt;span style=&quot;font-family: &amp;#34;consolas&amp;#34; , &amp;#34;courier new&amp;#34; , monospace ; font-size: 14px&quot;&gt;elements&lt;/span&gt;" style="whiteSpace=wrap;html=1;fontSize=13;fontColor=#FFFFFF;rounded=0;labelBackgroundColor=none;" vertex="1" parent="1">
                    <mxGeometry x="474" y="242" width="120" height="60" as="geometry"/>
                </mxCell>
                <mxCell id="50" value="" style="edgeStyle=none;html=1;" edge="1" parent="1" source="51" target="45">
                    <mxGeometry relative="1" as="geometry"/>
                </mxCell>
                <mxCell id="51" value="&lt;span style=&quot;font-family: &amp;#34;consolas&amp;#34; , &amp;#34;courier new&amp;#34; , monospace&quot;&gt;array&amp;nbsp;&lt;/span&gt;&lt;span style=&quot;font-family: &amp;#34;consolas&amp;#34; , &amp;#34;courier new&amp;#34; , monospace ; font-size: 14px&quot;&gt;elements&lt;/span&gt;" style="whiteSpace=wrap;html=1;fontSize=13;fontColor=#FFFFFF;rounded=0;labelBackgroundColor=none;" vertex="1" parent="1">
                    <mxGeometry x="294" y="400" width="120" height="30" as="geometry"/>
                </mxCell>
                <mxCell id="52" value="" style="edgeStyle=none;html=1;fontColor=#F0F0F0;" edge="1" parent="1" source="53" target="56">
                    <mxGeometry relative="1" as="geometry"/>
                </mxCell>
                <mxCell id="53" value="&lt;div style=&quot;background-color: rgb(40 , 44 , 52) ; font-family: &amp;#34;consolas&amp;#34; , &amp;#34;courier new&amp;#34; , monospace ; font-size: 14px ; line-height: 19px&quot;&gt;&lt;div&gt;&lt;span style=&quot;font-family: &amp;#34;helvetica&amp;#34; ; font-size: 13px ; background-color: rgb(42 , 42 , 42)&quot;&gt;newArray(&lt;/span&gt;evenCounts)=result&amp;nbsp;&lt;br&gt;size = numbers.Length;&lt;/div&gt;&lt;div&gt;&amp;nbsp; i = 0&lt;/div&gt;&lt;/div&gt;" style="whiteSpace=wrap;html=1;fontSize=13;fontColor=#F0F0F0;rounded=0;" vertex="1" parent="1">
                    <mxGeometry x="498.25" y="701.97" width="240" height="60" as="geometry"/>
                </mxCell>
                <mxCell id="54" value="Yes" style="edgeStyle=none;html=1;fontColor=#F0F0F0;" edge="1" parent="1" source="56" target="58">
                    <mxGeometry relative="1" as="geometry"/>
                </mxCell>
                <mxCell id="55" value="No" style="edgeStyle=none;html=1;fontColor=#F0F0F0;" edge="1" parent="1" source="56" target="39">
                    <mxGeometry x="-0.8928" relative="1" as="geometry">
                        <Array as="points">
                            <mxPoint x="760" y="821"/>
                            <mxPoint x="760" y="1046"/>
                        </Array>
                        <mxPoint as="offset"/>
                    </mxGeometry>
                </mxCell>
                <mxCell id="56" value="i &amp;lt;&amp;nbsp;&lt;span style=&quot;font-family: &amp;#34;consolas&amp;#34; , &amp;#34;courier new&amp;#34; , monospace ; font-size: 14px ; background-color: rgb(40 , 44 , 52)&quot;&gt;size&lt;/span&gt;" style="rhombus;whiteSpace=wrap;html=1;fontSize=13;fontColor=#F0F0F0;rounded=0;" vertex="1" parent="1">
                    <mxGeometry x="543" y="791.97" width="147" height="58.03" as="geometry"/>
                </mxCell>
                <mxCell id="57" value="" style="edgeStyle=none;html=1;fontColor=#F0F0F0;" edge="1" parent="1" source="58" target="60">
                    <mxGeometry relative="1" as="geometry"/>
                </mxCell>
                <mxCell id="58" value="&lt;span style=&quot;font-family: &amp;#34;consolas&amp;#34; , &amp;#34;courier new&amp;#34; , monospace ; font-size: 14px ; background-color: rgb(40 , 44 , 52)&quot;&gt;result + numbers [i]&lt;/span&gt;" style="whiteSpace=wrap;html=1;fontSize=13;fontColor=#F0F0F0;rounded=0;" vertex="1" parent="1">
                    <mxGeometry x="524.75" y="881.97" width="183.5" height="39.99" as="geometry"/>
                </mxCell>
                <mxCell id="59" style="edgeStyle=none;html=1;entryX=0;entryY=0.5;entryDx=0;entryDy=0;fontColor=#F0F0F0;" edge="1" parent="1" source="60" target="56">
                    <mxGeometry relative="1" as="geometry">
                        <Array as="points">
                            <mxPoint x="480" y="965"/>
                            <mxPoint x="480" y="821"/>
                        </Array>
                    </mxGeometry>
                </mxCell>
                <mxCell id="60" value="i = i + 1" style="whiteSpace=wrap;html=1;fontSize=13;fontColor=#F0F0F0;rounded=0;" vertex="1" parent="1">
                    <mxGeometry x="556.5" y="948.9300000000001" width="120" height="33.03" as="geometry"/>
                </mxCell>
            </root>
        </mxGraphModel>
    </diagram>
</mxfile>